<svg id="_1-10" data-name="#1-10" xmlns="http://www.w3.org/2000/svg" xmlns:xlink="http://www.w3.org/1999/xlink" viewBox="0 0 400 300" width="406" height="306" class="illustration styles_illustrationTablet__1DWOa"><defs><linearGradient id="linear-gradient" x1="224.46" y1="149.86" x2="114.12" y2="209.31" gradientUnits="userSpaceOnUse"><stop offset="0" stop-color="#91bfef"></stop><stop offset="1" stop-color="#fff"></stop></linearGradient><linearGradient id="linear-gradient-2" x1="171.26" y1="114.4" x2="79.91" y2="163.62" xlink:href="#linear-gradient"></linearGradient><linearGradient id="linear-gradient-3" x1="337.75" y1="151" x2="227.41" y2="210.45" xlink:href="#linear-gradient"></linearGradient><linearGradient id="linear-gradient-4" x1="212.71" y1="244.51" x2="191.89" y2="259.81" xlink:href="#linear-gradient"></linearGradient></defs><title>4_New Message_isometric</title><path d="M393.13,186.41l-4.9,2.91L179.16,69.58,20.42,165l-7.25-2.17,0,8.57a4.52,4.52,0,0,0,2.25,4.47l200.2,114.95a18.87,18.87,0,0,0,18.65.09l154.7-87a8.08,8.08,0,0,0,4-8.54Z" fill="#68e1fd"></path><path d="M393.13,186.41l-4.9,2.91L179.16,69.58,20.42,165l-7.25-2.17,0,8.57a4.52,4.52,0,0,0,2.25,4.47l200.2,114.95a18.87,18.87,0,0,0,18.65.09l154.7-87a8.08,8.08,0,0,0,4-8.54Z" fill="#124577" opacity="0.82"></path><path d="M15.45,165.25l200.2,114.95a18.87,18.87,0,0,0,18.65.09l154.7-87A8.12,8.12,0,0,0,389,179.2L179.16,59,15.37,157.41A4.55,4.55,0,0,0,15.45,165.25Z" fill="#f47a63"></path><polygon points="39.2 160.47 211.35 259.23 363.96 173.45 189.41 70.94 39.2 160.47" fill="#fff"></polygon><ellipse cx="306.4" cy="221.16" rx="7.61" ry="4.15" fill="#ffcd62"></ellipse><path d="M109.35,196.51c10.63,6.5,21.71,12.19,32.19,18.85L199,182.19l-3.55-11.07-6.17-1.8-45.53,3.17L106.49,195l.85.68A6.89,6.89,0,0,1,109.35,196.51Z" fill="url(#linear-gradient)"></path><path d="M65.53,171.9c5.8,3.52,14.71,6.94,20.58,10.35l64.66-39.3-3.55-11.07-6.17-1.8-45.53,3.17L53.65,162C58.79,165.65,60.13,168.61,65.53,171.9Z" fill="url(#linear-gradient-2)"></path><polyline points="257.75 174.88 162.99 232.02 192.56 248.45 308.29 183.77 309.46 173.51 303.29 171.71" fill="url(#linear-gradient-3)"></polyline><path d="M93.78,89.24v79.69a4.58,4.58,0,0,0,6.86,4l107.09-61.7V27.56Z" fill="#68e1fd"></path><path d="M93.78,89.24S156.09,99.49,163,97.4s44.75-69.84,44.75-69.84Z" fill="#6de2fc"></path><path d="M93.78,89.24S156.09,99.49,163,97.4s44.75-69.84,44.75-69.84Z" fill="#68e1fd"></path><path d="M93.78,89.24S156.09,99.49,163,97.4s44.75-69.84,44.75-69.84Z" opacity="0.5"></path><path d="M143,117.78V205.6a5.13,5.13,0,0,0,7.68,4.44l113.17-65.2a9.8,9.8,0,0,0,4.91-8.49V54.5A2.85,2.85,0,0,0,264.58,52Z" fill="#68e1fd"></path><path d="M266.95,51.77a3.68,3.68,0,0,0-1.93,0L142.94,117.85s68.76,11.31,76.38,9c6.83-2.07,41.15-62.46,48.14-74.85A3,3,0,0,0,266.95,51.77Z" fill="#6de2fc"></path><path d="M266.95,51.77a3.68,3.68,0,0,0-1.93,0L142.94,117.85s68.76,11.31,76.38,9c6.83-2.07,41.15-62.46,48.14-74.85A3,3,0,0,0,266.95,51.77Z" fill="#68e1fd"></path><path d="M266.95,51.77a3.68,3.68,0,0,0-1.93,0L142.94,117.85s68.76,11.31,76.38,9c6.83-2.07,41.15-62.46,48.14-74.85A3,3,0,0,0,266.95,51.77Z" opacity="0.5"></path><g opacity="0.21"><path d="M210.77,77.43Q190.39,88.65,170,99.78c-7.39,4-14.76,8.09-22.24,11.94-2.89,1.49-5.72,2.78-7,6.06-.8,2.12-.6,4.42-.6,6.65l.08,25.57c1.23-.72,1.91-1.07,2.92-1.65V128.89c0-2.43-.17-4.93,0-7.35.28-4.16,3-5.64,6.29-7.33,16.2-8.35,32.1-17.3,48.07-26.06l16-8.78a1.44,1.44,0,0,0,.44-.38A29.05,29.05,0,0,1,210.77,77.43Z" fill="#124577"></path></g><path d="M251.07,25.39l22.82-13a1.37,1.37,0,0,1,2.05,1.19V31.7a2,2,0,0,1-1,1.75l-22.86,13a1.29,1.29,0,0,1-1.93-1.12l0-18.26A1.92,1.92,0,0,1,251.07,25.39Z" fill="#f7931e"></path><path d="M255.17,43.48v6.23l6-10.15" fill="#f7931e"></path><path d="M255.35,31.74l16.73-9.81a1.5,1.5,0,0,0-1.51-2.59l-16.73,9.81a1.5,1.5,0,0,0,1.51,2.59Z" fill="#f2f2f2"></path><path d="M255.82,37.28l16.73-9.81A1.5,1.5,0,0,0,271,24.88L254.3,34.69a1.5,1.5,0,0,0,1.51,2.59Z" fill="#f2f2f2"></path><ellipse cx="146.72" cy="119.63" rx="12.92" ry="11.08" transform="translate(11.98 252.6) rotate(-83.81)" fill="#ff6161"></ellipse><path d="M238.42,127.8h-.07a1,1,0,0,0-.95-1,1.06,1.06,0,0,0-1.29-1,24.17,24.17,0,0,1-3.72.51,20.79,20.79,0,0,1-9.58-2.62,5.52,5.52,0,0,0-1-1,1.3,1.3,0,0,0-2.12.88c-.11,1,1,1.9,1.92,2.57a31.67,31.67,0,0,0-3.2.85c-.92.3-2.09.57-2.3,1.66a1.05,1.05,0,0,0,1.28,1.28l.32-.06a2,2,0,0,0-1.07,1.3,1.05,1.05,0,0,0,1,1.31,4.58,4.58,0,0,0,1.26-.17l-.16.23a1,1,0,0,0,1.17,1.53c.48-.11,1-.24,1.42-.37a1,1,0,0,0,1.24,1.3q2.85-.9,5.64-2a82.34,82.34,0,0,1,9.44-1.27,1.1,1.1,0,0,0,.69-1.86l.35-.05C239.84,129.66,239.58,127.71,238.42,127.8Z" fill="#ffe8e6"></path><path d="M222.5,128.36l-5.29,1.46a.23.23,0,0,0,.12.45l5.29-1.46A.23.23,0,0,0,222.5,128.36Z" fill="#42210b"></path><path d="M223.58,130.49q-2.38.77-4.78,1.47a.23.23,0,0,0,.12.45q2.4-.7,4.78-1.47C224,130.85,223.86,130.4,223.58,130.49Z" fill="#42210b"></path><path d="M224.7,132.26l-3.32,1.2c-.28.1-.16.55.12.45l3.32-1.2C225.1,132.6,225,132.16,224.7,132.26Z" fill="#42210b"></path><path d="M266.14,107.22s-13.46,8-28-.09l-.69,10.61s16,6.36,27.26,3.76" fill="#124577" opacity="0.92"></path><path d="M238,109.37a4.69,4.69,0,0,1-2.26-1.23c-.49-.58-.62-1.36-1.06-2a3.22,3.22,0,0,0-1.79-1.4c-.84-.17-1.45.74-1.31,1.5a4.6,4.6,0,0,0,1.38,2l.15.13a5,5,0,0,1-.47.95,1,1,0,0,1-.11.33c-.64,1.2-1.54,2.25-2.22,3.43a4.26,4.26,0,0,1-.29.54l-.17.38a23.62,23.62,0,0,0,2.49.31,20.34,20.34,0,0,0,5.34.46C237.82,113.05,237.86,111.26,238,109.37Z" fill="#ffe8e6"></path><path d="M234.5,112.66c-1.67-.7-1.61-2.42-1.34-3.94.05-.29-.39-.42-.45-.12-.32,1.81-.26,3.7,1.67,4.5C234.65,113.22,234.77,112.77,234.5,112.66Z" fill="#42210b"></path><path d="M247,172.67s-.17,5.15-1.2,6-5.92,3.54-8.21,3.66-2.1,2.51-.73,3.92,11.72.8,12.46.06,3.59-5.4,3.16-5.47-.62,6.21-.22,6.43a5.47,5.47,0,0,0,1.74.15l1.5-16.49" fill="#124577"></path><path d="M256.35,149.05c1.06.09,10.86,1.24,18.26-1.45a26.43,26.43,0,0,0,3.67-8.9,51.67,51.67,0,0,0,1.38-8.6l-7.49.35a126.35,126.35,0,0,0-21.94,2.64c-4.2.95-9,1.92-12,5.26-3.44,3.8-2.42,9.07-1.44,13.61a136.48,136.48,0,0,0,6.8,21.54l18.11-2.71S254.4,148.9,256.35,149.05Z" fill="#f4a195"></path><path d="M315.3,178.79a10,10,0,0,0,.9-.85l-5.26-9L303.12,165l-2.74,9.19s4.66.61,5.11,2a4.85,4.85,0,0,1-.24,4.27c-.74,1-1.9,1.71-2.71,2.7a6,6,0,0,0-1.41,2.31c-.26,1.28,1.43,2.06,3.86,1.8s4.77-3.22,5.41-3.61,0-9.77.93-9.51c.66.19,1.6,2.87,2.3,4.28Z" fill="#124577"></path><path d="M303.29,171.71c.5-3.66.85-8.69-1.08-12.21l-28.28,2.57s13.76-13.9,10.14-30.58l-18.69.46s-27.61,40.41-8.7,47.37c8,3,30.19,1.07,45.28-1.26A41,41,0,0,0,303.29,171.71Z" fill="#ffb3a6"></path><path d="M265.68,107.12s-14.59,16.21-35.38,16.67l.46,10.92s20.07,2.31,32.52-8.07l2.09,5.3S276,137,284.3,133.1c0,0-.3-23.24-17-31" fill="#6de2fc"></path><path d="M265.68,107.12s-14.59,16.21-35.38,16.67l.46,10.92s20.07,2.31,32.52-8.07l2.09,5.3S276,137,284.3,133.1c0,0-.3-23.24-17-31" fill="#124577" opacity="0.82"></path><path d="M256.95,96.67s-.57,10.47,4.56,11.72c5.85,1.43,9.77-6.64,7.16-11.17S258.31,93.15,256.95,96.67Z" fill="#ffe8e6"></path><path d="M260.28,92.23a7.62,7.62,0,0,0-4.68,4.13c-.06.14-.11.29-.16.44a6.38,6.38,0,0,0-.05,1.26,2.64,2.64,0,0,0,1.62,2.42,6,6,0,0,1,1.74-4.78s-.59,1.15,5,3.67c0,0,3.86,5.11,2.79,7.75.1-.25.81-.62,1-.8a15.41,15.41,0,0,0,2.3-2.38C274.62,97.72,267,90.11,260.28,92.23Z" fill="#f47a63"></path><path d="M258.75,95.7s.17,4.78,5.87,5.65c3.46.53-3.85,6.86-.43,8.84s9.89-2.42,11.43-5.7S272,91.66,263.84,91.2c0,0-5.9-1.13-8.31,5.5" fill="#f47a63"></path><path d="M260.32,101.49a.23.23,0,0,0-.07.46A.23.23,0,0,0,260.32,101.49Z" fill="#42210b"></path><path d="M257.73,101l-.13,0c-.28.09-.11.52.17.43l.13,0C258.19,101.31,258,100.88,257.73,101Z" fill="#42210b"></path><path d="M267,101.36c-.95-1.68-3.22.1-3.15,1.52a.4.4,0,0,0,.5.39.51.51,0,0,0,.05.16,1.36,1.36,0,0,1-.34,0c-.58-.11-.72.8-.14.91C265.34,104.6,267.94,103.08,267,101.36Zm-1.94.8a.46.46,0,0,0,.17.14.43.43,0,0,0,.45-.05.52.52,0,0,1-.1.17.89.89,0,0,1-.7.34h-.1A1,1,0,0,1,265,102.16Z" fill="#ffe8e6"></path><path d="M259.4,104.12c-.89,0-.41-1-.28-1.49s.3-1,.47-1.49c.09-.28-.35-.4-.45-.12-.16.49-.32,1-.47,1.49a5.55,5.55,0,0,0-.33,1.27c0,.61.53.79,1,.81C259.69,104.59,259.69,104.13,259.4,104.12Z" fill="#42210b"></path><path d="M261.68,104.06a1.89,1.89,0,0,1-.74,1,2.58,2.58,0,0,1-1.52.15c-.29,0-.42.4-.12.44a3.26,3.26,0,0,0,1.72-.13,2.11,2.11,0,0,0,1.07-1.24C262.2,104,261.8,103.79,261.68,104.06Z" fill="#42210b"></path><path d="M207.08,256.78l9.54-8c-2-3.72-2.13-4.85-5.26-7.76l-2.13,3.14-14.57,5.45C198.85,251.69,202.83,254.83,207.08,256.78Z" fill="url(#linear-gradient-4)"></path><path d="M204.25,235.9l2.2,10.09a2.28,2.28,0,0,0,1.24,1.56c1.28.62,3.92,1.26,8.93.36a2.3,2.3,0,0,0,1.86-1.76l2.26-10.26" fill="#68e1fd"></path><ellipse cx="212.49" cy="235.9" rx="8.24" ry="3.32" fill="#124577"></ellipse><path d="M207.7,228.43a2.63,2.63,0,0,1-1-.87l-4.64-7.06c-2.15-3.27-2.93-26.73,2.7-27,4.47-.23,9.07,10.05,10.67,13.06a48.46,48.46,0,0,1,4,8.88c1.35,4.63-1.71,8.68-4.61,12.35C213.51,229.52,209.56,229.44,207.7,228.43Z" fill="#66c652"></path><path d="M210.46,233.06q.94.64,1.83,1.34a84.87,84.87,0,0,0-4.35-30.85c-.39-1.14-2.21-.59-1.82.56A83.1,83.1,0,0,1,210.46,233.06Z" fill="#124577"></path><path d="M217,226.54a1.64,1.64,0,0,1-.11-.81l.64-5.33c.29-2.47,9.6-14.32,12.49-12.22,2.3,1.67.31,8.57-.14,10.69a30.78,30.78,0,0,1-1.68,6c-1.25,2.81-4.43,3.58-7.37,4.23C219.42,229.4,217.5,227.78,217,226.54Z" fill="#49b230"></path><path d="M225.57,214.67a102.13,102.13,0,0,0-9.88,21.89,12.15,12.15,0,0,1,1.36.86,100.69,100.69,0,0,1,9.89-22C227.46,214.55,226.08,213.82,225.57,214.67Z" fill="#124577"></path></svg>